<?xml version="1.0" standalone="no"?>
<!DOCTYPE svg PUBLIC "-//W3C//DTD SVG 20010904//EN"
 "http://www.w3.org/TR/2001/REC-SVG-20010904/DTD/svg10.dtd">
<svg version="1.0" xmlns="http://www.w3.org/2000/svg"
 width="256.000000pt" height="256.000000pt" viewBox="0 0 256.000000 256.000000"
 preserveAspectRatio="xMidYMid meet">
<metadata>
Created by potrace 1.14, written by Peter Selinger 2001-2017
</metadata>
<g transform="translate(0.000000,256.000000) scale(0.100000,-0.100000)"
fill="#000000" stroke="none">
<path d="M1655 2299 c-22 -12 -164 -92 -315 -179 -415 -237 -708 -400 -720
-400 -6 0 -33 11 -60 25 -63 32 -70 31 -138 -6 -32 -17 -95 -52 -142 -77 -196
-106 -215 -118 -218 -145 -2 -18 9 -41 37 -77 23 -29 41 -55 41 -59 0 -3 -15
-15 -34 -25 -19 -10 -37 -28 -40 -39 -4 -18 17 -72 35 -87 10 -9 19 -41 10
-35 -5 3 -12 1 -15 -4 -9 -14 8 -21 24 -11 18 11 44 -8 31 -24 -5 -6 -5 -20 0
-31 4 -11 8 -14 8 -7 1 6 5 12 11 12 5 0 6 -8 3 -17 -6 -16 -5 -16 10 -4 15
12 17 12 11 -3 -5 -12 -2 -15 12 -10 18 5 18 5 1 -6 -15 -10 -16 -13 -2 -26 8
-9 12 -20 9 -26 -5 -7 -2 -8 6 -3 10 6 12 4 7 -8 -4 -10 -2 -14 6 -12 7 3 19
0 27 -5 13 -9 13 -11 0 -21 -13 -9 -12 -10 3 -5 24 8 47 -3 40 -20 -3 -8 0
-14 7 -14 6 0 8 -5 4 -12 -5 -7 -2 -9 9 -5 10 4 21 -3 31 -18 19 -29 21 -49 4
-39 -7 4 -2 -5 11 -19 29 -32 28 -31 28 -12 0 8 -5 11 -10 8 -6 -4 -7 -1 -3 6
5 7 11 10 14 6 11 -11 11 -40 -1 -48 -7 -5 -3 -6 11 -2 15 4 24 1 28 -9 3 -9
10 -14 14 -11 5 3 6 -4 3 -15 -4 -16 -2 -19 13 -14 11 4 16 4 13 0 -4 -4 7
-21 23 -38 16 -17 27 -37 24 -45 -3 -7 -1 -13 5 -13 6 0 7 -6 3 -12 -5 -8 0
-7 11 2 11 9 16 10 11 3 -4 -7 -3 -13 2 -13 20 0 23 -34 5 -48 -16 -12 -15
-12 13 -8 33 6 62 -14 49 -34 -3 -5 -1 -11 4 -11 6 -1 17 -2 24 -3 6 -1 11 -7
9 -14 -1 -7 5 -15 13 -18 8 -4 15 -14 15 -23 0 -10 12 -23 26 -29 14 -7 23
-16 20 -21 -4 -5 -1 -12 4 -14 6 -3 5 -4 -2 -2 -7 1 -12 7 -11 13 1 5 -5 13
-14 16 -14 6 -14 4 -1 -16 9 -13 25 -24 37 -26 20 -3 30 -27 12 -34 -4 -1 2
-14 14 -27 17 -17 25 -20 30 -10 6 8 4 10 -5 4 -9 -6 -11 -4 -5 5 6 9 4 11 -5
5 -9 -5 -11 -4 -6 3 4 7 2 12 -4 12 -6 0 -8 4 -5 10 3 5 20 -6 36 -25 17 -19
35 -33 39 -30 5 3 12 1 15 -5 4 -7 11 -8 18 -1 15 12 29 12 44 0 8 -7 10 -5 6
9 -2 11 0 23 6 26 6 4 9 1 5 -7 -3 -8 1 -14 10 -14 8 0 12 6 9 13 -5 13 14 28
37 29 8 0 15 5 15 12 0 6 4 15 9 20 5 4 6 3 3 -3 -4 -7 0 -14 8 -18 8 -3 14
-2 14 2 -4 22 3 31 18 25 11 -4 14 -3 9 5 -5 8 3 12 26 13 27 0 30 2 13 9 -19
8 -19 9 2 9 12 1 24 -5 27 -11 3 -7 3 -2 -1 12 -5 22 -4 23 10 12 13 -11 18
-9 31 10 9 13 20 22 23 20 4 -2 9 2 11 10 2 9 0 8 -7 -2 -6 -8 -11 -10 -11 -4
0 6 6 17 14 23 11 9 18 8 31 -6 17 -16 17 -16 11 4 -4 13 -2 24 5 29 7 4 9 3
6 -3 -4 -6 3 -10 16 -9 12 0 26 7 30 14 5 7 13 10 19 6 6 -4 5 3 -2 16 -8 15
-8 20 -1 16 6 -4 22 4 35 17 19 20 26 22 30 10 4 -9 2 -11 -6 -7 -7 4 -8 3 -4
-4 11 -18 28 -14 24 6 -5 30 10 44 35 30 21 -11 21 -10 7 7 -9 11 -10 16 -2
11 7 -4 12 -2 12 4 0 6 4 9 10 5 5 -3 7 -12 4 -19 -3 -8 -1 -17 4 -20 5 -3 8
11 6 32 -4 35 -3 36 10 13 10 -18 14 -20 19 -8 3 8 0 20 -6 26 -9 9 -8 11 6 6
9 -4 17 -11 17 -16 0 -4 12 3 26 16 15 14 30 22 35 20 4 -3 13 3 19 14 9 17 8
19 -5 15 -8 -3 -12 -10 -9 -15 3 -5 2 -8 -3 -7 -4 1 -18 -3 -29 -10 -12 -6
-25 -8 -29 -4 -5 4 -5 1 0 -7 6 -10 4 -12 -4 -7 -17 11 6 37 26 29 12 -5 14
-3 8 8 -4 8 -5 11 -1 7 5 -4 31 9 58 28 28 18 54 31 59 28 5 -3 9 -1 9 3 0 16
38 34 46 21 5 -7 3 -8 -6 -3 -9 5 -11 4 -6 -4 11 -18 25 -3 19 22 -4 21 -4 21
10 -2 14 -24 15 -24 21 -3 5 14 12 19 24 15 13 -4 12 -2 -3 10 -16 13 -17 16
-4 17 9 0 26 9 39 20 12 11 28 16 34 13 18 -12 35 -12 43 -1 3 7 1 8 -5 4 -8
-5 -12 0 -12 13 0 12 5 21 11 21 5 0 7 -4 4 -10 -3 -5 1 -10 10 -10 11 0 15 5
11 15 -4 10 1 15 14 15 11 0 19 6 17 12 -1 7 4 12 11 11 6 -2 12 2 12 7 0 5 6
9 13 7 6 -1 11 3 10 10 -2 8 4 10 14 6 12 -5 14 -3 9 8 -4 8 0 5 10 -6 16 -20
16 -20 11 3 -5 20 -3 22 11 10 13 -11 15 -11 10 3 -5 13 -2 16 13 12 10 -3 16
-10 12 -17 -3 -6 -2 -7 2 -3 17 15 14 39 -3 33 -9 -4 -6 2 8 13 13 11 27 18
31 15 3 -2 14 5 24 16 20 22 35 26 35 9 0 -5 -6 -7 -12 -3 -7 4 -9 3 -5 -1 13
-15 36 -14 30 1 -9 24 34 62 68 59 16 -1 29 2 29 7 0 5 6 6 13 2 7 -5 6 0 -3
11 -14 17 -14 18 10 5 24 -13 24 -12 10 5 -9 11 -10 16 -2 11 6 -4 12 -4 12 1
0 4 12 17 27 27 14 11 23 15 20 9 -4 -6 2 -13 13 -16 17 -4 18 -2 9 15 -8 15
-8 19 0 14 6 -4 11 -3 11 2 0 6 8 13 18 17 14 5 15 4 5 -6 -7 -7 -13 -20 -13
-29 1 -8 9 3 20 25 17 35 26 40 21 12 -1 -5 3 -6 9 -2 6 3 8 11 4 16 -3 6 6
21 20 36 31 31 42 80 27 126 -11 32 -114 142 -656 694 l-180 184 -40 -22z
m-1478 -1155 c-3 -3 -12 -4 -19 -1 -8 3 -5 6 6 6 11 1 17 -2 13 -5z m53 -75
c0 -16 26 -39 35 -31 5 4 5 1 1 -6 -6 -10 -11 -10 -22 -1 -22 18 -37 49 -24
49 5 0 10 -5 10 -11z m380 -453 c0 -2 -7 -7 -16 -10 -8 -3 -12 -2 -9 4 6 10
25 14 25 6z m705 -45 c3 -6 -4 -15 -15 -21 -13 -7 -20 -7 -20 0 0 5 7 10 16
10 8 0 12 5 9 10 -3 6 -4 10 -1 10 3 0 7 -4 11 -9z m-135 -92 c-7 -11 -14 -19
-16 -16 -7 7 7 37 17 37 6 0 5 -9 -1 -21z"/>
<path d="M52 1225 c3 -3 16 -8 28 -10 12 -2 20 -1 16 2 -4 4 -16 8 -28 10 -12
2 -19 1 -16 -2z"/>
<path d="M2360 1201 c-13 -25 -13 -31 0 -31 6 0 9 3 9 8 -3 20 2 32 13 26 7
-4 8 -3 4 4 -10 16 -14 15 -26 -7z"/>
<path d="M130 1170 c0 -5 5 -10 11 -10 5 0 7 5 4 10 -3 6 -8 10 -11 10 -2 0
-4 -4 -4 -10z"/>
<path d="M2232 1137 c-5 -7 -13 -19 -17 -27 -8 -13 -6 -13 8 -2 9 8 21 11 27
7 6 -4 9 -1 8 7 -2 7 4 12 12 10 8 -2 11 0 7 4 -12 13 -35 13 -45 1z"/>
<path d="M2155 1080 c-3 -5 -1 -10 4 -10 6 0 11 5 11 10 0 6 -2 10 -4 10 -3 0
-8 -4 -11 -10z"/>
<path d="M2116 1062 c-10 -16 9 -30 21 -17 10 10 9 14 -2 19 -8 3 -16 2 -19
-2z"/>
<path d="M2010 986 c0 -2 7 -7 16 -10 8 -3 12 -2 9 4 -6 10 -25 14 -25 6z"/>
<path d="M1966 960 c3 -3 16 -5 29 -5 14 -1 22 2 19 5 -3 3 -16 5 -29 5 -14 1
-22 -2 -19 -5z"/>
<path d="M330 918 c0 -9 7 -19 16 -22 15 -6 15 -4 3 11 -7 10 -15 20 -16 22
-2 2 -3 -3 -3 -11z"/>
<path d="M1833 881 l-23 -19 23 2 c14 0 23 7 23 18 0 10 0 18 -1 18 0 -1 -10
-9 -22 -19z"/>
<path d="M420 805 c0 -5 5 -17 10 -25 5 -8 10 -10 10 -5 0 6 -5 17 -10 25 -5
8 -10 11 -10 5z"/>
<path d="M1705 800 c-3 -5 -1 -10 4 -10 6 0 11 5 11 10 0 6 -2 10 -4 10 -3 0
-8 -4 -11 -10z"/>
<path d="M1647 774 c-23 -12 -30 -34 -11 -34 3 0 2 5 -1 10 -5 9 7 14 27 12 3
-1 9 5 12 13 6 18 8 18 -27 -1z"/>
<path d="M1690 771 c0 -6 4 -13 10 -16 6 -3 7 1 4 9 -7 18 -14 21 -14 7z"/>
<path d="M455 740 c3 -5 12 -10 18 -10 18 0 40 -37 25 -42 -9 -3 -9 -6 -1 -11
22 -14 21 22 -2 47 -23 25 -53 37 -40 16z"/>
<path d="M540 636 c0 -2 7 -7 16 -10 8 -3 12 -2 9 4 -6 10 -25 14 -25 6z"/>
<path d="M1414 628 c-4 -7 -4 -10 1 -6 4 4 15 2 24 -5 14 -11 14 -10 2 6 -16
20 -18 21 -27 5z"/>
<path d="M596 582 c-2 -4 -1 -14 3 -21 6 -10 10 -9 14 3 6 16 -8 32 -17 18z"/>
<path d="M633 524 c0 -7 4 -11 9 -8 4 3 8 1 8 -4 0 -6 8 -13 17 -16 16 -6 16
-6 0 12 -9 10 -15 21 -12 24 3 2 -1 5 -8 5 -8 0 -14 -6 -14 -13z"/>
<path d="M1226 507 c3 -10 9 -15 12 -12 3 3 0 11 -7 18 -10 9 -11 8 -5 -6z"/>
<path d="M670 446 c0 -2 7 -7 16 -10 8 -3 12 -2 9 4 -6 10 -25 14 -25 6z"/>
<path d="M975 361 c-3 -5 -2 -12 3 -15 5 -3 9 1 9 9 0 17 -3 19 -12 6z"/>
<path d="M813 325 c0 -8 5 -11 10 -8 6 4 8 0 5 -8 -4 -10 3 -14 21 -15 14 -1
20 1 13 3 -6 3 -9 10 -5 16 3 7 2 9 -2 4 -5 -4 -16 0 -25 8 -14 13 -17 13 -17
0z"/>
<path d="M886 312 c-2 -4 2 -16 10 -27 8 -10 14 -14 14 -8 0 7 -5 15 -10 18
-6 4 -8 11 -5 16 4 5 4 9 1 9 -3 0 -7 -3 -10 -8z"/>
</g>
</svg>
